<svg width="87" height="22" viewBox="0 0 87 22" fill="none" xmlns="http://www.w3.org/2000/svg">
<path d="M6.91603 21.532C8.68937 21.532 10.1174 21.0934 11.2 20.216C12.2827 19.3387 12.824 18.1907 12.824 16.772C12.824 15.6707 12.488 14.7467 11.816 14C11.144 13.2347 10.1734 12.6654 8.90403 12.292L6.46803 11.564C5.3667 11.2467 4.81603 10.7894 4.81603 10.192C4.81603 9.80004 4.96537 9.49204 5.26403 9.26804C5.58137 9.04404 6.0107 8.93204 6.55203 8.93204C7.2987 8.93204 7.96137 9.12804 8.54003 9.52004C9.13737 9.89338 9.54803 10.3974 9.77203 11.032L12.88 9.57604C12.4134 8.30671 11.6107 7.32671 10.472 6.63604C9.35203 5.92671 8.04537 5.57204 6.55203 5.57204C5.41337 5.57204 4.40537 5.77738 3.52803 6.18804C2.6507 6.58004 1.96937 7.13071 1.48403 7.84004C0.9987 8.54938 0.756033 9.38004 0.756033 10.332C0.756033 11.4147 1.09203 12.3574 1.76403 13.16C2.43603 13.944 3.39737 14.5134 4.64803 14.868L7.25203 15.596C8.26003 15.876 8.76403 16.324 8.76403 16.94C8.76403 17.8547 8.14803 18.312 6.91603 18.312C6.0947 18.312 5.34803 18.0787 4.67603 17.612C4.00403 17.1454 3.47203 16.5014 3.08003 15.68L3.32519e-05 17.136C0.448033 18.48 1.28803 19.5534 2.52003 20.356C3.7707 21.14 5.23603 21.532 6.91603 21.532ZM15.3342 21.196H19.5342V16.52L21.2142 14.672L25.1062 21.196H29.8662L24.3502 12.068L29.8942 5.90804H24.7142L19.5342 11.424V4.41074e-05H15.3342V21.196ZM31.7404 4.53604H35.9404V0.336043H31.7404V4.53604ZM31.7404 21.196H35.9404V5.90804H31.7404V21.196ZM39.0139 21.196H43.2139V4.41074e-05H39.0139V21.196ZM46.2873 21.196H50.4873V4.41074e-05H46.2873V21.196ZM60.9248 21.532C62.4928 21.532 63.8648 21.196 65.0408 20.524C66.2168 19.8334 67.0381 18.928 67.5048 17.808L64.1448 16.212C63.8461 16.7347 63.4261 17.1454 62.8848 17.444C62.3621 17.7427 61.7274 17.892 60.9808 17.892C59.9541 17.892 59.1141 17.6027 58.4608 17.024C57.8074 16.4454 57.4248 15.68 57.3128 14.728H68.0088C68.0834 14.5227 68.1301 14.28 68.1488 14C68.1861 13.7014 68.2048 13.4027 68.2048 13.104C68.2048 11.6854 67.9061 10.416 67.3088 9.29604C66.7301 8.15738 65.8808 7.25204 64.7608 6.58004C63.6408 5.90804 62.2688 5.57204 60.6448 5.57204C59.1888 5.57204 57.8821 5.91738 56.7248 6.60804C55.5674 7.29871 54.6434 8.24138 53.9528 9.43604C53.2808 10.6307 52.9448 11.9934 52.9448 13.524C52.9448 14.9987 53.2714 16.3427 53.9248 17.556C54.5781 18.7694 55.5021 19.74 56.6968 20.468C57.8914 21.1774 59.3008 21.532 60.9248 21.532ZM60.6448 8.93204C61.5034 8.93204 62.2128 9.18404 62.7728 9.68804C63.3328 10.192 63.6594 10.8454 63.7528 11.648H57.3968C57.6021 10.7707 57.9848 10.0987 58.5448 9.63204C59.1234 9.16538 59.8234 8.93204 60.6448 8.93204ZM77.8739 21.532C78.8073 21.532 79.6753 21.3827 80.4779 21.084C81.2993 20.7667 81.9806 20.3187 82.5219 19.74V21.196H86.4419V4.41074e-05H82.2419V7.19604C81.1593 6.11338 79.6939 5.57204 77.8459 5.57204C76.3899 5.57204 75.0739 5.92671 73.8979 6.63604C72.7219 7.34538 71.7886 8.30671 71.0979 9.52004C70.4073 10.7147 70.0619 12.0587 70.0619 13.552C70.0619 15.0267 70.3979 16.3707 71.0699 17.584C71.7606 18.7974 72.6939 19.7587 73.8699 20.468C75.0459 21.1774 76.3806 21.532 77.8739 21.532ZM78.3779 17.752C77.2206 17.752 76.2686 17.36 75.5219 16.576C74.7753 15.792 74.4019 14.784 74.4019 13.552C74.4019 12.3387 74.7753 11.34 75.5219 10.556C76.2686 9.75338 77.2206 9.35204 78.3779 9.35204C79.5166 9.35204 80.4406 9.74404 81.1499 10.528C81.8779 11.312 82.2419 12.32 82.2419 13.552C82.2419 14.8027 81.8779 15.82 81.1499 16.604C80.4406 17.3694 79.5166 17.752 78.3779 17.752Z" fill="#13183F"/>
</svg>
